# xmcd
#
# Track frame offsets: 
#        150
#        12304
#        29492
#        42589
#        53979
#        64774
#        79968
#        94590
#        106983
#        118428
#        129189
#        140447
#        156320
#
# Disc length: 2242 seconds
#
# Revision: 1
# Processed by: cddbd v1.5.2PL0 Copyright (c) Steve Scherf et al.
# Submitted via: ExactAudioCopy v1.3
#
DISCID=b608c00d
DTITLE=FB Pocket Orchestra - Boot That Thing
DYEAR=2014
DGENRE=Jazz
TTITLE0=Five foot two eyes of blue
TTITLE1=Why don't you do right
TTITLE2=Exactly like you
TTITLE3=Better boot that thing
TTITLE4=Three o'clock in the morning
TTITLE5=Russian lullaby
TTITLE6=Paper doll
TTITLE7=Get 'em from the peanut man (hot nuts)
TTITLE8=Dolores waltz
TTITLE9=Dinah
TTITLE10=Crow jane
TTITLE11=Palm leaf rag
TTITLE12=My girl's pussy
EXTD=YEAR: 2014
EXTT0=
EXTT1=
EXTT2=
EXTT3=
EXTT4=
EXTT5=
EXTT6=
EXTT7=
EXTT8=
EXTT9=
EXTT10=
EXTT11=
EXTT12=
PLAYORDER=
